HIERARCHY
ROOT Hips
{
	OFFSET 0.0000 0.0000 0.0000
	CHANNELS 6 Xposition Yposition Zposition Zrotation Xrotation Yrotation
	JOINT Spine
	{
		OFFSET 0.0000 10.0000 0.0000
		CHANNELS 3 Zrotation Xrotation Yrotation
		JOINT Spine1
		{
			OFFSET 0.0000 14.0000 0.0000
			CHANNELS 3 Zrotation Xrotation Yrotation
			JOINT Neck
			{
				OFFSET 0.0000 17.0000 0.0000
				CHANNELS 3 Zrotation Xrotation Yrotation
				JOINT Head
				{
					OFFSET 0.0000 10.0000 0.0000
					CHANNELS 3 Zrotation Xrotation Yrotation
					End Site
					{
						OFFSET 0.0000 18.0000 0.0000
					}
				}
			}
			JOINT LeftShoulder
			{
				OFFSET 4.0000 13.0000 0.0000
				CHANNELS 3 Zrotation Xrotation Yrotation
				JOINT LeftArm
				{
					OFFSET 13.0000 0.0000 0.0000
					CHANNELS 3 Zrotation Xrotation Yrotation
					JOINT LeftForeArm
					{
						OFFSET 0.0000 -28.0000 0.0000
						CHANNELS 3 Zrotation Xrotation Yrotation
						JOINT LeftHand
						{
							OFFSET 0.0000 -24.0000 0.0000
							CHANNELS 3 Zrotation Xrotation Yrotation
							End Site
							{
								OFFSET 0.0000 -17.0000 0.0000
							}
						}
					}
				}
			}
			JOINT RightShoulder
			{
				OFFSET -4.0000 13.0000 0.0000
				CHANNELS 3 Zrotation Xrotation Yrotation
				JOINT RightArm
				{
					OFFSET -13.0000 0.0000 0.0000
					CHANNELS 3 Zrotation Xrotation Yrotation
					JOINT RightForeArm
					{
						OFFSET 0.0000 -28.0000 0.0000
						CHANNELS 3 Zrotation Xrotation Yrotation
						JOINT RightHand
						{
							OFFSET 0.0000 -24.0000 0.0000
							CHANNELS 3 Zrotation Xrotation Yrotation
							End Site
							{
								OFFSET 0.0000 -17.0000 0.0000
							}
						}
					}
				}
			}
		}
	}
	JOINT LeftUpLeg
	{
		OFFSET 9.0000 -4.0000 0.0000
		CHANNELS 3 Zrotation Xrotation Yrotation
		JOINT LeftLeg
		{
			OFFSET 0.0000 -42.0000 0.0000
			CHANNELS 3 Zrotation Xrotation Yrotation
			JOINT LeftFoot
			{
				OFFSET 0.0000 -40.0000 0.0000
				CHANNELS 3 Zrotation Xrotation Yrotation
				JOINT LeftToeBase
				{
					OFFSET 0.0000 -6.0000 13.0000
					CHANNELS 3 Zrotation Xrotation Yrotation
					End Site
					{
						OFFSET 0.0000 -2.0000 6.0000
					}
				}
			}
		}
	}
	JOINT RightUpLeg
	{
		OFFSET -9.0000 -4.0000 0.0000
		CHANNELS 3 Zrotation Xrotation Yrotation
		JOINT RightLeg
		{
			OFFSET 0.0000 -42.0000 0.0000
			CHANNELS 3 Zrotation Xrotation Yrotation
			JOINT RightFoot
			{
				OFFSET 0.0000 -40.0000 0.0000
				CHANNELS 3 Zrotation Xrotation Yrotation
				JOINT RightToeBase
				{
					OFFSET 0.0000 -6.0000 13.0000
					CHANNELS 3 Zrotation Xrotation Yrotation
					End Site
					{
						OFFSET 0.0000 -2.0000 6.0000
					}
				}
			}
		}
	}
}
MOTION
Frames: 15
Frame Time: 0.0333333
35.2732 87.0000 707.1659 -2.9489 10.9123 45.8655 -0.1542 2.7157 3.2500 -0.2393 2.2541 6.0612 0.4798 -3.9376 6.9530 0.8776 -4.7683 10.4413 3.0000 0.0000 -0.0000 6.0580 -7.9191 0.8377 -0.0000 -39.8683 -0.0000 -0.0000 -8.0000 -0.0000 -3.0000 0.0000 -0.0000 -6.0383 6.4458 0.6804 -0.0000 -39.8683 -0.0000 -0.0000 -8.0000 -0.0000 -10.2844 -30.3246 -1.3789 -0.0000 45.8462 0.0000 4.2572 -22.1734 1.2714 -0.0000 -2.6333 -0.0000 -6.8615 -37.3383 -8.3210 0.0000 73.9959 -0.0000 -2.6073 -40.0126 -9.1471 -0.0000 7.9431 -0.0000
37.5433 87.0420 708.3483 -3.4920 10.5361 48.6835 -0.1414 2.6970 3.0023 -0.2199 2.2398 5.6095 0.4544 -3.8943 6.6614 0.8314 -4.7194 10.0031 3.0000 0.0000 -0.0000 6.0584 -10.0974 1.0660 -0.0000 -39.5926 -0.0000 -0.0000 -8.0000 -0.0000 -3.0000 0.0000 -0.0000 -6.0305 8.4837 0.8929 -0.0000 -39.5926 -0.0000 -0.0000 -8.0000 -0.0000 -11.1876 -29.8033 -3.0195 -0.0000 48.0616 -0.0000 4.9434 -21.1223 0.3756 -0.0000 -5.7740 -0.0000 2.8332 -47.6104 -0.6248 0.0000 71.4637 -0.0000 -10.4124 -32.9084 -7.6571 -0.0000 7.5289 -0.0000
39.9385 87.1560 709.5861 -4.0047 10.1417 51.4781 -0.1294 2.6792 2.7654 -0.2016 2.2262 5.1768 0.4294 -3.8531 6.3637 0.7858 -4.6730 9.5559 3.0000 0.0000 -0.0000 6.0631 -12.0221 1.2674 -0.0000 -39.3053 -0.0000 -0.0000 -8.0000 -0.0000 -3.0000 0.0000 -0.0000 -6.0268 10.2843 1.0798 -0.0000 -39.3053 -0.0000 -0.0000 -8.0000 -0.0000 -12.0694 -29.4525 -4.6381 0.0000 50.6355 -0.0000 5.7738 -18.8700 -0.3895 -0.0000 -10.1320 -0.0000 11.6459 -52.5661 8.3760 0.0000 60.2469 -0.0000 -11.5225 -20.8297 0.2110 -0.0000 6.8052 -0.0000
42.4571 87.3240 710.8507 -4.4791 9.7370 54.2129 -0.1183 2.6623 2.5449 -0.1848 2.2131 4.7733 0.4048 -3.8142 6.0620 0.7408 -4.6291 9.1027 3.0000 0.0000 -0.0000 6.0675 -13.6298 1.4349 -0.0000 -39.0044 -0.0000 -0.0000 -8.0000 -0.0000 -3.0000 0.0000 -0.0000 -6.0235 11.7883 1.2349 -0.0000 -39.0044 -0.0000 -0.0000 -8.0000 -0.0000 -12.9745 -29.2643 -6.2276 0.0000 53.4293 -0.0000 6.8035 -15.2859 -0.9876 -0.0000 -15.7073 -0.0000 15.4244 -50.5080 15.1680 -0.0000 39.4684 0.0000 -9.0203 -3.7797 8.8902 -0.0000 5.8812 -0.0000
45.0953 87.5280 712.1118 -4.9091 9.3312 56.8520 -0.1084 2.6462 2.3462 -0.1696 2.2005 4.4090 0.3806 -3.7774 5.7583 0.6969 -4.5877 8.6465 3.0000 0.0000 -0.0000 6.0670 -14.8569 1.5611 -0.0000 -38.6879 -0.0000 -0.0000 -8.0000 -0.0000 -3.0000 0.0000 -0.0000 -6.0167 12.9363 1.3517 -0.0000 -38.6879 -0.0000 -0.0000 -8.0000 -0.0000 -13.9514 -29.2192 -7.7802 0.0000 56.2578 0.0000 8.0549 -10.1988 -1.4070 -0.0000 -22.5000 -0.0000 12.5338 -42.6811 17.5939 0.0000 11.4674 -0.0000 -5.6988 15.9734 14.4395 -0.0000 4.8662 -0.0000
47.8472 87.7500 713.3375 -5.2904 8.9343 59.3596 -0.0999 2.6307 2.1750 -0.1566 2.1882 4.0941 0.3572 -3.7429 5.4546 0.6540 -4.5487 8.1904 3.0000 0.0000 -0.0000 6.0568 -15.6401 1.6386 -0.0000 -38.3537 -0.0000 -0.0000 -8.0000 -0.0000 -3.0000 0.0000 -0.0000 -6.0024 13.6689 1.4233 -0.0000 -38.3537 -0.0000 -0.0000 -8.0000 -0.0000 -13.4226 -30.1973 -8.6139 -0.0000 59.7312 0.0000 7.5583 -16.1841 -2.2630 -0.0000 -13.9207 -0.0000 12.4166 -45.3628 20.9593 -0.0000 11.4674 -0.0000 -2.1238 18.4002 15.2486 -0.0000 3.8694 -0.0000
50.7042 87.9720 714.4947 -5.6249 8.5490 61.7012 -0.0930 2.6157 2.0367 -0.1460 2.1762 3.8385 0.3344 -3.7106 5.1531 0.6124 -4.5122 7.7375 3.0000 0.0000 -0.0000 6.0331 -15.9159 1.6601 -0.0000 -38.0000 -0.0000 -0.0000 -8.0000 -0.0000 -3.0000 0.0000 -0.0000 -5.9774 13.9269 1.4436 -0.0000 -38.0000 -0.0000 -0.0000 -8.0000 -0.0000 -10.9226 -35.3524 -8.4956 -0.0000 64.5776 -0.0000 4.3757 -19.8576 -4.1905 -0.0000 -4.3535 -0.0000 10.7575 -45.1842 20.7026 0.0000 11.4674 0.0000 -0.3646 17.3631 14.5460 -0.0000 3.0000 -0.0000
53.6555 88.1760 715.5494 -5.8990 8.1877 63.7227 -0.0893 2.6011 1.9669 -0.1402 2.1643 3.7060 0.3124 -3.6806 4.8556 0.5723 -4.4783 7.2907 3.0000 0.0000 -0.0000 5.9794 -15.1370 1.5667 -0.0000 -37.6251 -0.0000 -0.0000 -8.0000 -0.0000 -3.0000 0.0000 -0.0000 -5.9285 13.2035 1.3587 -0.0000 -37.6251 -0.0000 -0.0000 -8.0000 -0.0000 -6.7329 -42.8780 -7.3905 -0.0000 67.6698 0.0000 -0.6993 -19.5202 -6.4032 -0.0000 3.7318 -0.0000 9.0496 -43.7877 18.7325 0.0000 11.4674 0.0000 -1.3519 19.6533 13.8130 -0.0000 1.7500 -0.0000
56.6882 88.3440 716.4672 -6.1067 7.8643 65.3369 -0.0896 2.5867 1.9840 -0.1403 2.1523 3.7302 0.2914 -3.6528 4.5642 0.5339 -4.4468 6.8531 3.0000 0.0000 -0.0000 5.8943 -13.0212 1.3325 -0.0000 -37.2306 -0.0000 -0.0000 -8.0000 -0.0000 -3.0000 0.0000 -0.0000 -5.8548 11.2386 1.1449 -0.0000 -37.2306 -0.0000 -0.0000 -8.0000 -0.0000 -0.9667 -50.2463 -4.9589 0.0000 65.5873 -0.0000 -6.1630 -14.0810 -6.9696 -0.0000 7.8650 -0.0000 7.6540 -42.2384 17.1213 0.0000 11.4674 -0.0000 -2.2576 21.9215 13.2718 -0.0000 0.5000 -0.0000
59.8190 88.4580 717.2771 -6.2764 7.5640 66.7157 -0.0921 2.5724 2.0512 -0.1438 2.1402 3.8438 0.2713 -3.6269 4.2810 0.4972 -4.4174 6.4278 3.0000 0.0000 -0.0000 5.8007 -9.9021 1.0008 -0.0000 -36.8194 -0.0000 -0.0000 -8.0000 -0.0000 -3.0000 0.0000 -0.0000 -5.7753 8.3420 0.8407 -0.0000 -36.8194 -0.0000 -0.0000 -8.0000 -0.0000 5.8788 -54.0504 -1.0673 -0.0000 54.6989 0.0000 -10.7328 -4.0654 -4.1714 -0.0000 7.9002 -0.0000 6.3618 -40.4697 15.7053 -0.0000 11.4674 0.0000 -2.4365 21.5950 12.5760 -0.0000 0.0000 -0.0000
63.0710 88.5000 718.0100 -6.4301 7.2713 68.0121 -0.0953 2.5583 2.1336 -0.1482 2.1282 3.9831 0.2522 -3.6023 4.0079 0.4623 -4.3894 6.0177 3.0000 0.0000 -0.0000 5.7191 -6.1136 0.6111 -0.0000 -36.3943 -0.0000 -0.0000 -8.0000 -0.0000 -3.0000 0.0000 -0.0000 -5.7068 4.8241 0.4815 -0.0000 -36.3943 -0.0000 -0.0000 -8.0000 -0.0000 11.5863 -49.3429 2.8643 0.0000 28.0730 0.0000 -14.2216 12.6966 2.9094 -0.0000 7.5289 -0.0000 5.1229 -38.5023 14.3895 -0.0000 11.4674 0.0000 -2.1769 19.4692 11.7598 -0.0000 0.0000 -0.0000
66.4352 88.4636 718.6375 -6.5725 6.9820 69.2649 -0.0984 2.5441 2.2146 -0.1523 2.1162 4.1187 0.2328 -3.5789 3.7240 0.4267 -4.3626 5.5914 3.0000 0.0000 -0.0000 5.6631 -1.9902 0.1973 -0.0000 -35.9581 -0.0000 -0.0000 -8.0000 -0.0000 -3.0000 0.0000 -0.0000 -5.6606 0.9951 0.0986 -0.0000 -35.9581 -0.0000 -0.0000 -8.0000 -0.0000 15.2371 -47.9878 6.1642 -0.0000 11.4674 -0.0000 -16.4851 23.4853 9.8493 -0.0000 6.9427 -0.0000 3.9482 -36.4053 13.1644 -0.0000 11.4674 0.0000 -1.8971 17.2331 10.9722 -0.0000 0.0000 -0.0000
69.8949 88.3648 719.1473 -6.7076 6.6914 70.5124 -0.1006 2.5299 2.2776 -0.1553 2.1042 4.2209 0.2119 -3.5562 3.4116 0.3884 -4.3368 5.1223 3.0000 0.0000 -0.0000 5.6375 2.1336 -0.2106 -0.0000 -35.5136 -0.0000 -0.0000 -8.0000 -0.0000 -3.0000 0.0000 -0.0000 -5.6405 -2.8342 -0.2798 -0.0000 -35.5136 -0.0000 -0.0000 -8.0000 -0.0000 18.6021 -53.0867 10.0644 0.0000 11.4674 -0.0000 -16.3517 26.2081 13.3108 -0.0000 6.2047 -0.0000 3.5338 -36.9056 12.4230 -0.0000 17.1868 -0.0000 -1.5632 11.9524 10.1118 -0.0000 0.0000 -0.0000
73.4334 88.2192 719.5331 -6.8385 6.3947 71.7928 -0.1013 2.5154 2.3062 -0.1558 2.0921 4.2604 0.1899 -3.5338 3.0779 0.3481 -4.3113 4.6211 3.0000 0.0000 -0.0000 5.6383 5.9234 -0.5837 -0.0000 -35.0637 -0.0000 -0.0000 -8.0000 -0.0000 -3.0000 0.0000 -0.0000 -5.6429 -6.3533 -0.6264 -0.0000 -35.0637 -0.0000 -0.0000 -8.0000 -0.0000 20.8722 -56.7355 13.7308 0.0000 11.4674 0.0000 -15.1509 29.5423 15.2888 -0.0000 5.3782 -0.0000 3.5518 -39.3351 11.9618 0.0000 27.1860 0.0000 -1.2004 4.3573 9.2400 -0.0000 0.0000 -0.0000
77.0364 88.0424 719.7901 -6.9674 6.0869 73.1444 -0.0997 2.5008 2.2838 -0.1530 2.0800 4.2076 0.1673 -3.5112 2.7299 0.3068 -4.2853 4.0986 3.0000 0.0000 -0.0000 5.6537 9.0445 -0.8916 -0.0000 -34.6112 -0.0000 -0.0000 -8.0000 -0.0000 -3.0000 0.0000 -0.0000 -5.6570 -9.2515 -0.9124 -0.0000 -34.6112 -0.0000 -0.0000 -8.0000 -0.0000 21.7720 -59.1497 16.5150 -0.0000 11.4674 0.0000 -13.0869 31.9966 15.6936 -0.0000 4.5265 -0.0000 2.9885 -40.0933 11.1410 0.0000 33.9139 0.0000 -0.8117 -1.6858 8.4493 -0.0000 0.0000 -0.0000
